<svg width="32" height="32" viewBox="0 0 32 32" fill="none" xmlns="http://www.w3.org/2000/svg">
<path d="M28.5759 10.8735L18.7623 6.38351C17.7076 5.90137 16.8438 5.68038 16 5.70047C15.1563 5.68038 14.2924 5.90137 13.2377 6.38351L3.42411 10.8735C2.72098 11.1848 2.35938 11.7674 2.35938 12.3601C2.35938 12.9627 2.72098 13.5353 3.42411 13.8467L7.31138 15.6045L13.8304 12.561C13.7902 12.4907 13.7701 12.4304 13.7701 12.3601C13.7701 11.6268 14.885 11.1045 16.0301 11.1045C17.1853 11.1045 18.2902 11.6268 18.2902 12.3601C18.2902 13.1134 17.1853 13.6458 16.0301 13.6458C15.6786 13.6458 15.317 13.5956 14.9955 13.4951L8.87835 16.3478L13.2377 18.3467C14.2924 18.8288 15.1563 19.0398 16 19.0297C16.8438 19.0398 17.7076 18.8288 18.7623 18.3467L28.5759 13.8467C29.279 13.5252 29.6406 12.9627 29.6406 12.3601C29.6406 11.7674 29.279 11.1848 28.5759 10.8735ZM8.83817 17.9549V23.8311C10.5859 24.8757 13.067 25.5085 16 25.5085C21.8962 25.5085 25.9442 22.9672 25.9442 19.8333V16.6692L19.375 19.6826C18.1596 20.2351 17.0547 20.5163 16 20.5063C14.9554 20.5163 13.8404 20.2351 12.625 19.6826L8.83817 17.9549ZM6.0558 16.6793V19.8333C6.0558 20.7072 6.51786 21.7418 7.35156 22.6257V17.2719L6.0558 16.6793ZM6.46763 26.2116V28.8132C6.46763 29.667 7.03013 30.2295 7.88393 30.2295H8.3058C9.1596 30.2295 9.71205 29.667 9.71205 28.8132V26.2116C9.71205 25.5487 9.38058 25.0665 8.83817 24.8757V23.8311C8.25558 23.4795 7.75335 23.0777 7.35156 22.6257V24.8757C6.80915 25.0565 6.46763 25.5487 6.46763 26.2116Z" fill="#2162FF"/>
</svg>
