<svg width="32" height="32" viewBox="0 0 32 32" fill="none" xmlns="http://www.w3.org/2000/svg">
<path d="M15.3987 6.54447C15.6433 6.04898 16.3498 6.04898 16.5944 6.54448L18.9763 11.3708C19.0734 11.5675 19.2611 11.7039 19.4782 11.7355L24.8044 12.5094C25.3512 12.5888 25.5695 13.2608 25.1739 13.6465L21.3198 17.4033C21.1627 17.5564 21.091 17.7771 21.1281 17.9934L22.0379 23.298C22.1313 23.8426 21.5597 24.2579 21.0706 24.0007L16.3068 21.4962C16.1126 21.3941 15.8805 21.3941 15.6863 21.4962L10.9225 24.0007C10.4334 24.2579 9.86178 23.8426 9.95518 23.298L10.865 17.9934C10.9021 17.7771 10.8304 17.5564 10.6733 17.4033L6.81924 13.6465C6.42356 13.2608 6.6419 12.5888 7.18872 12.5094L12.5148 11.7355C12.732 11.7039 12.9197 11.5675 13.0168 11.3708L15.3987 6.54447Z" fill="#2162FF"/>
<path fill-rule="evenodd" clip-rule="evenodd" d="M14.5031 6.10191C15.1144 4.86316 16.8808 4.86317 17.4922 6.10191L19.7966 10.7711L24.9493 11.5198C26.3163 11.7184 26.8621 13.3984 25.873 14.3626L22.1444 17.997L23.0246 23.1289C23.2581 24.4904 21.8291 25.5287 20.6064 24.8859L15.9976 22.4629L11.3889 24.8859C10.1662 25.5287 8.73715 24.4904 8.97067 23.1289L9.85086 17.997L6.12232 14.3626C5.13312 13.3984 5.67898 11.7184 7.04601 11.5198L12.1987 10.7711L14.5031 6.10191ZM15.9976 7.5927L13.9146 11.8133C13.6719 12.3052 13.2026 12.6462 12.6597 12.7251L8.002 13.4019L11.3724 16.6872C11.7652 17.0701 11.9444 17.6217 11.8517 18.1624L11.0561 22.8013L15.2221 20.6111C15.7076 20.3559 16.2877 20.3559 16.7732 20.6111L20.9392 22.8013L20.1436 18.1624C20.0508 17.6217 20.2301 17.0701 20.6229 16.6872L23.9933 13.4019L19.3355 12.7251C18.7927 12.6462 18.3234 12.3052 18.0806 11.8133L15.9976 7.5927Z" fill="#2162FF"/>
</svg>
