<svg width="142" height="56" viewBox="0 0 142 56" fill="none" xmlns="http://www.w3.org/2000/svg">
<rect width="142" height="56" rx="28" fill="white"/>
<path fill-rule="evenodd" clip-rule="evenodd" d="M26.5303 23.4697C26.8232 23.7626 26.8232 24.2374 26.5303 24.5303L23.0607 28L26.5303 31.4697C26.8232 31.7626 26.8232 32.2374 26.5303 32.5303C26.2374 32.8232 25.7626 32.8232 25.4697 32.5303L21.4697 28.5303C21.1768 28.2374 21.1768 27.7626 21.4697 27.4697L25.4697 23.4697C25.7626 23.1768 26.2374 23.1768 26.5303 23.4697Z" fill="#141416"/>
<path fill-rule="evenodd" clip-rule="evenodd" d="M21.25 28C21.25 27.5858 21.5858 27.25 22 27.25L34 27.25C34.4142 27.25 34.75 27.5858 34.75 28C34.75 28.4142 34.4142 28.75 34 28.75L22 28.75C21.5858 28.75 21.25 28.4142 21.25 28Z" fill="#141416"/>
<path d="M67.34 21.49V34H65.288V28.528H59.402V34H57.35V21.49H59.402V26.854H65.288V21.49H67.34ZM74.3434 34.162C73.4074 34.162 72.5614 33.952 71.8054 33.532C71.0494 33.1 70.4554 32.5 70.0234 31.732C69.5914 30.952 69.3754 30.052 69.3754 29.032C69.3754 28.024 69.5974 27.13 70.0414 26.35C70.4854 25.57 71.0914 24.97 71.8594 24.55C72.6274 24.13 73.4854 23.92 74.4334 23.92C75.3814 23.92 76.2394 24.13 77.0074 24.55C77.7754 24.97 78.3814 25.57 78.8254 26.35C79.2694 27.13 79.4914 28.024 79.4914 29.032C79.4914 30.04 79.2634 30.934 78.8074 31.714C78.3514 32.494 77.7274 33.1 76.9354 33.532C76.1554 33.952 75.2914 34.162 74.3434 34.162ZM74.3434 32.38C74.8714 32.38 75.3634 32.254 75.8194 32.002C76.2874 31.75 76.6654 31.372 76.9534 30.868C77.2414 30.364 77.3854 29.752 77.3854 29.032C77.3854 28.312 77.2474 27.706 76.9714 27.214C76.6954 26.71 76.3294 26.332 75.8734 26.08C75.4174 25.828 74.9254 25.702 74.3974 25.702C73.8694 25.702 73.3774 25.828 72.9214 26.08C72.4774 26.332 72.1234 26.71 71.8594 27.214C71.5954 27.706 71.4634 28.312 71.4634 29.032C71.4634 30.1 71.7334 30.928 72.2734 31.516C72.8254 32.092 73.5154 32.38 74.3434 32.38ZM93.5259 23.92C94.3059 23.92 95.0019 24.082 95.6139 24.406C96.2379 24.73 96.7239 25.21 97.0719 25.846C97.4319 26.482 97.6119 27.25 97.6119 28.15V34H95.5779V28.456C95.5779 27.568 95.3559 26.89 94.9119 26.422C94.4679 25.942 93.8619 25.702 93.0939 25.702C92.3259 25.702 91.7139 25.942 91.2579 26.422C90.8139 26.89 90.5919 27.568 90.5919 28.456V34H88.5579V28.456C88.5579 27.568 88.3359 26.89 87.8919 26.422C87.4479 25.942 86.8419 25.702 86.0739 25.702C85.3059 25.702 84.6939 25.942 84.2379 26.422C83.7939 26.89 83.5719 27.568 83.5719 28.456V34H81.5199V24.082H83.5719V25.216C83.9079 24.808 84.3339 24.49 84.8499 24.262C85.3659 24.034 85.9179 23.92 86.5059 23.92C87.2979 23.92 88.0059 24.088 88.6299 24.424C89.2539 24.76 89.7339 25.246 90.0699 25.882C90.3699 25.282 90.8379 24.808 91.4739 24.46C92.1099 24.1 92.7939 23.92 93.5259 23.92ZM109.313 28.798C109.313 29.17 109.289 29.506 109.241 29.806H101.663C101.723 30.598 102.017 31.234 102.545 31.714C103.073 32.194 103.721 32.434 104.489 32.434C105.593 32.434 106.373 31.972 106.829 31.048H109.043C108.743 31.96 108.197 32.71 107.405 33.298C106.625 33.874 105.653 34.162 104.489 34.162C103.541 34.162 102.689 33.952 101.933 33.532C101.189 33.1 100.601 32.5 100.169 31.732C99.749 30.952 99.539 30.052 99.539 29.032C99.539 28.012 99.743 27.118 100.151 26.35C100.571 25.57 101.153 24.97 101.897 24.55C102.653 24.13 103.517 23.92 104.489 23.92C105.425 23.92 106.259 24.124 106.991 24.532C107.723 24.94 108.293 25.516 108.701 26.26C109.109 26.992 109.313 27.838 109.313 28.798ZM107.171 28.15C107.159 27.394 106.889 26.788 106.361 26.332C105.833 25.876 105.179 25.648 104.399 25.648C103.691 25.648 103.085 25.876 102.581 26.332C102.077 26.776 101.777 27.382 101.681 28.15H107.171Z" fill="#141416"/>
</svg>
