<svg width="16" height="16" viewBox="0 0 16 16" fill="none" xmlns="http://www.w3.org/2000/svg">
<path fill-rule="evenodd" clip-rule="evenodd" d="M8.0026 4.5C5.70142 4.5 3.83594 6.36548 3.83594 8.66667C3.83594 10.9679 5.70142 12.8333 8.0026 12.8333C10.3038 12.8333 12.1693 10.9679 12.1693 8.66667C12.1693 6.36548 10.3038 4.5 8.0026 4.5ZM2.83594 8.66667C2.83594 5.8132 5.14913 3.5 8.0026 3.5C10.8561 3.5 13.1693 5.8132 13.1693 8.66667C13.1693 11.5201 10.8561 13.8333 8.0026 13.8333C5.14913 13.8333 2.83594 11.5201 2.83594 8.66667Z" fill="#141416"/>
<path fill-rule="evenodd" clip-rule="evenodd" d="M8 5.83301C8.27614 5.83301 8.5 6.05687 8.5 6.33301V8.42603L9.97901 9.60924C10.1946 9.78174 10.2296 10.0964 10.0571 10.312C9.8846 10.5277 9.56995 10.5626 9.35432 10.3901L7.68765 9.05678C7.56904 8.96189 7.5 8.81823 7.5 8.66634V6.33301C7.5 6.05687 7.72386 5.83301 8 5.83301Z" fill="#141416"/>
<path fill-rule="evenodd" clip-rule="evenodd" d="M5.5 1.33301C5.5 1.05687 5.72386 0.833008 6 0.833008H10C10.2761 0.833008 10.5 1.05687 10.5 1.33301C10.5 1.60915 10.2761 1.83301 10 1.83301H6C5.72386 1.83301 5.5 1.60915 5.5 1.33301Z" fill="#141416"/>
<path fill-rule="evenodd" clip-rule="evenodd" d="M8 0.833008C8.27614 0.833008 8.5 1.05687 8.5 1.33301L8.5 3.99967C8.5 4.27582 8.27614 4.49967 8 4.49967C7.72386 4.49967 7.5 4.27582 7.5 3.99967L7.5 1.33301C7.5 1.05687 7.72386 0.833008 8 0.833008Z" fill="#141416"/>
<path fill-rule="evenodd" clip-rule="evenodd" d="M13.0176 4.31344C13.2129 4.5087 13.2129 4.82528 13.0176 5.02055L12.0176 6.02055C11.8224 6.21581 11.5058 6.21581 11.3105 6.02055C11.1152 5.82528 11.1152 5.5087 11.3105 5.31344L12.3105 4.31344C12.5058 4.11818 12.8224 4.11818 13.0176 4.31344Z" fill="#141416"/>
</svg>
