<svg width="16" height="16" viewBox="0 0 16 16" fill="none" xmlns="http://www.w3.org/2000/svg">
<path d="M13.7684 9.03786C13.9944 9.17849 14.2706 9.12324 14.4263 8.89724C15.0792 7.97313 15.4609 6.73764 15.4609 5.46699C15.4609 4.19132 15.0843 2.95081 14.4263 2.03173C14.2706 1.80572 13.9944 1.75048 13.7684 1.89612C13.5324 2.04177 13.4972 2.33809 13.673 2.59925C14.2104 3.37771 14.5167 4.40226 14.5167 5.46699C14.5167 6.5267 14.2003 7.54623 13.673 8.32972C13.5022 8.59088 13.5324 8.88719 13.7684 9.03786ZM7.99777 7.84757C9.20815 7.84757 10.1925 6.77782 10.1925 5.46699C10.1925 4.17123 9.21317 3.14166 7.99777 3.14166C6.78739 3.14166 5.79799 4.1863 5.79799 5.47202C5.80301 6.78284 6.78237 7.84757 7.99777 7.84757ZM11.7645 7.6969C11.9754 7.83251 12.2517 7.78228 12.4074 7.56632C12.8092 7.02391 13.0502 6.26052 13.0502 5.46699C13.0502 4.66844 12.8092 3.91007 12.4074 3.36264C12.2517 3.14668 11.9754 3.09646 11.7645 3.2421C11.5184 3.3978 11.4732 3.69411 11.6641 3.97536C11.9453 4.3671 12.101 4.90449 12.101 5.46699C12.101 6.02447 11.9403 6.55684 11.6641 6.95862C11.4782 7.23987 11.5184 7.53117 11.7645 7.6969ZM7.99777 6.98373C7.29967 6.98373 6.71205 6.32079 6.71205 5.47202C6.70703 4.64835 7.29464 4.01052 7.99777 4.01052C8.70089 4.01052 9.28348 4.63831 9.28348 5.46699C9.28348 6.31074 8.70089 6.98373 7.99777 6.98373ZM4.86384 12.5786H11.1267C11.9905 12.5786 12.4074 12.3074 12.4074 11.7198C12.4074 10.3437 10.6897 8.49545 7.99275 8.49545C5.30078 8.49545 3.57812 10.3437 3.57812 11.7198C3.57812 12.3074 3.99498 12.5786 4.86384 12.5786ZM4.6981 11.7097C4.57757 11.7097 4.53237 11.6746 4.53237 11.5792C4.53237 10.8107 5.7779 9.36431 7.99275 9.36431C10.2126 9.36431 11.4581 10.8107 11.4581 11.5792C11.4581 11.6746 11.4129 11.7097 11.2924 11.7097H4.6981Z" fill="white"/>
</svg>
