<svg width="24" height="24" viewBox="0 0 24 24" fill="none" xmlns="http://www.w3.org/2000/svg">
<path d="M12.007 18.243C18.192 18.243 22.3504 13.2559 22.3504 11.7115C22.3504 10.1671 18.1769 5.1875 12.007 5.1875C5.91239 5.1875 1.64844 10.1671 1.64844 11.7115C1.64844 13.2559 5.89732 18.243 12.007 18.243ZM12.007 16.7665C7.20061 16.7665 3.39621 12.7662 3.39621 11.7115C3.39621 10.8301 7.20061 6.66406 12.007 6.66406C16.7907 6.66406 20.6027 10.8301 20.6027 11.7115C20.6027 12.7662 16.7907 16.7665 12.007 16.7665ZM12.007 15.757C14.252 15.757 16.0525 13.9113 16.0525 11.7115C16.0525 9.45898 14.252 7.67355 12.007 7.67355C9.74693 7.67355 7.93889 9.45898 7.94643 11.7115C7.96149 13.9113 9.74693 15.757 12.007 15.757ZM11.9994 13.0148C11.2762 13.0148 10.6886 12.4272 10.6886 11.7115C10.6886 10.9958 11.2762 10.4082 11.9994 10.4082C12.7227 10.4082 13.3103 10.9958 13.3103 11.7115C13.3103 12.4272 12.7227 13.0148 11.9994 13.0148Z" fill="#B1B5C3"/>
</svg>
