<svg width="37" height="44" viewBox="0 0 37 44" fill="none" xmlns="http://www.w3.org/2000/svg">
<path d="M15.1767 2.86531C17.2375 1.69438 19.7625 1.69438 21.8233 2.86531L33.5961 9.55436C35.7002 10.7499 37 12.9834 37 15.4034V28.5961C37 31.0161 35.7002 33.2497 33.5961 34.4452L21.8233 41.1342C19.7625 42.3052 17.2375 42.3052 15.1767 41.1342L3.40394 34.4452C1.29983 33.2497 0 31.0161 0 28.5961V15.4034C0 12.9834 1.29983 10.7499 3.40394 9.55436L15.1767 2.86531Z" fill="#FFB800"/>
<path d="M15.4163 15.0214C15.7551 15.9249 15.7928 17.0543 15.4916 18.3719C15.1904 19.6895 14.6634 20.8189 13.8728 21.7601C13.007 22.7765 11.9905 23.3412 10.8988 23.3788C10.8988 26.3905 11.5764 27.8964 12.9693 27.8964C14.5881 27.8964 16.0186 26.0517 17.2986 22.3248C17.5621 22.1365 17.8256 22.2871 18.0892 22.7389C18.3903 23.2283 18.428 23.7553 18.2398 24.3576C17.5998 26.1646 16.7339 27.5952 15.6045 28.6869C14.5128 29.741 13.3458 30.2681 12.1035 30.2681C10.6729 30.2681 9.58118 29.4775 8.8659 27.8964C8.22592 26.5035 8.00004 24.7717 8.11298 22.6259C8.22592 20.2166 8.75296 18.1461 9.61882 16.4143C10.5976 14.4944 11.8023 13.5156 13.2705 13.5156C14.2869 13.5156 15.0022 14.005 15.4163 15.0214ZM11.8399 17.3931C11.3882 18.8237 11.087 20.3672 10.9741 22.0612C12.1411 21.3836 12.9317 20.066 13.4211 18.1084C13.6093 17.3178 13.6846 16.6779 13.6093 16.1132C13.5717 15.5485 13.3834 15.2473 13.1199 15.2473C12.7058 15.2473 12.2917 15.9626 11.8399 17.3931ZM24.8034 13.9673C25.5187 13.8544 26.121 14.1179 26.5351 14.7203C27.0245 15.4355 27.2127 16.4896 27.0998 17.9578C26.6104 23.9812 26.4975 26.9929 26.8363 26.9929C27.0245 26.9929 27.2504 26.767 27.5516 26.3152C28.2668 25.2611 28.8692 23.9435 29.4339 22.3248C29.6597 22.1365 29.9232 22.2871 30.1868 22.7389C30.5256 23.2283 30.5632 23.7553 30.375 24.3576C29.1327 28.0469 27.6645 29.8916 25.9704 29.8916C24.6905 29.8916 24.0128 28.4987 23.9375 25.6752C23.8999 24.1318 24.0881 21.6471 24.5022 18.1461C24.5775 17.5061 24.5022 17.1673 24.2763 17.1673C24.0505 17.1673 23.0717 20.5554 21.34 27.3317C20.8506 29.101 20.2859 30.0045 19.6082 30.0045C18.4412 30.0045 17.7636 28.6116 17.6507 25.7882C17.4624 23.1153 17.6507 19.9531 18.2153 16.2261C18.3659 15.172 18.893 14.3438 19.8341 13.7791C20.2106 13.5532 20.5117 13.4403 20.7753 13.4779C21.0388 13.4779 21.1517 13.6285 21.1141 13.9297C20.4741 19.2378 20.1729 23.04 20.1729 25.3741C21.6411 17.9955 23.1846 14.1932 24.8034 13.9673Z" fill="white"/>
</svg>
