<svg width="48" height="48" viewBox="0 0 48 48" fill="none" xmlns="http://www.w3.org/2000/svg">
<path fill-rule="evenodd" clip-rule="evenodd" d="M43.5 24C43.5 34.7696 34.7696 43.5 24 43.5C13.2304 43.5 4.5 34.7695 4.5 24C4.5 13.2304 13.2305 4.5 24 4.5C34.7696 4.5 43.5 13.2304 43.5 24ZM24 40.5C33.1127 40.5 40.5 33.1127 40.5 24C40.5 14.8873 33.1127 7.5 24 7.5C14.8873 7.5 7.5 14.8873 7.5 24C7.5 33.1127 14.8873 40.5 24 40.5Z" fill="white"/>
<path fill-rule="evenodd" clip-rule="evenodd" d="M22.5 30.5C22.5 31.3284 23.1716 32 24 32C24.8284 32 25.5 31.3284 25.5 30.5L25.5 20.1213L28.9393 23.5607C29.5251 24.1464 30.4749 24.1464 31.0607 23.5607C31.6464 22.9749 31.6464 22.0251 31.0607 21.4393L25.0607 15.4393C24.4749 14.8536 23.5251 14.8536 22.9393 15.4393L16.9393 21.4393C16.3536 22.0251 16.3536 22.9749 16.9393 23.5607C17.5251 24.1464 18.4749 24.1464 19.0607 23.5607L22.5 20.1213L22.5 30.5Z" fill="white"/>
</svg>
