<svg width="26" height="28" viewBox="0 0 26 28" fill="none" xmlns="http://www.w3.org/2000/svg">
<path fill-rule="evenodd" clip-rule="evenodd" d="M8.66667 1.66699C8.66667 1.11471 8.21895 0.666992 7.66667 0.666992C7.11438 0.666992 6.66667 1.11471 6.66667 1.66699V3.33366H5C2.23858 3.33366 0 5.57223 0 8.33366V23.0003C0 25.7617 2.23858 28.0003 5 28.0003H21C23.7614 28.0003 26 25.7617 26 23.0003V8.33366C26 5.57223 23.7614 3.33366 21 3.33366H19.3333V1.66699C19.3333 1.11471 18.8856 0.666992 18.3333 0.666992C17.781 0.666992 17.3333 1.11471 17.3333 1.66699V3.33366H8.66667V1.66699ZM18.3333 5.33366H7.66667H5C3.34315 5.33366 2 6.6768 2 8.33366V23.0003C2 24.6572 3.34315 26.0003 5 26.0003H21C22.6569 26.0003 24 24.6572 24 23.0003V8.33366C24 6.6768 22.6569 5.33366 21 5.33366H18.3333ZM22 9.66699C22 10.2193 21.5523 10.667 21 10.667H5C4.44772 10.667 4 10.2193 4 9.66699C4 9.11471 4.44772 8.66699 5 8.66699H21C21.5523 8.66699 22 9.11471 22 9.66699ZM7.66667 21.667C7.66667 22.4034 7.06971 23.0003 6.33333 23.0003C5.59695 23.0003 5 22.4034 5 21.667C5 20.9306 5.59695 20.3337 6.33333 20.3337C7.06971 20.3337 7.66667 20.9306 7.66667 21.667ZM13 23.0003C13.7364 23.0003 14.3333 22.4034 14.3333 21.667C14.3333 20.9306 13.7364 20.3337 13 20.3337C12.2636 20.3337 11.6667 20.9306 11.6667 21.667C11.6667 22.4034 12.2636 23.0003 13 23.0003ZM21 21.667C21 22.4034 20.403 23.0003 19.6667 23.0003C18.9303 23.0003 18.3333 22.4034 18.3333 21.667C18.3333 20.9306 18.9303 20.3337 19.6667 20.3337C20.403 20.3337 21 20.9306 21 21.667ZM6.33333 17.667C7.06971 17.667 7.66667 17.07 7.66667 16.3337C7.66667 15.5973 7.06971 15.0003 6.33333 15.0003C5.59695 15.0003 5 15.5973 5 16.3337C5 17.07 5.59695 17.667 6.33333 17.667ZM14.3333 16.3337C14.3333 17.07 13.7364 17.667 13 17.667C12.2636 17.667 11.6667 17.07 11.6667 16.3337C11.6667 15.5973 12.2636 15.0003 13 15.0003C13.7364 15.0003 14.3333 15.5973 14.3333 16.3337ZM19.6667 17.667C20.403 17.667 21 17.07 21 16.3337C21 15.5973 20.403 15.0003 19.6667 15.0003C18.9303 15.0003 18.3333 15.5973 18.3333 16.3337C18.3333 17.07 18.9303 17.667 19.6667 17.667Z" fill="white"/>
</svg>
