<svg width="80" height="80" viewBox="0 0 80 80" fill="none" xmlns="http://www.w3.org/2000/svg">
<rect width="80" height="80" rx="4" fill="#194DC9"/>
<path d="M46.74 48.3136C46.9308 49.9609 47.8147 50.7344 49.4721 50.5234L51.4107 50.3025C53.0681 50.0915 53.7813 49.1975 53.6004 47.5502L51.9833 32.9152C51.8025 31.2679 50.8984 30.4844 49.2511 30.7054L47.3125 30.9263C46.8806 30.9766 46.519 31.077 46.2176 31.2277V30.6652C46.2176 29.0078 45.394 28.1641 43.7366 28.1641H41.0446C39.3772 28.1641 38.5536 29.0078 38.5536 30.6652V34.6027C38.3828 34.5826 38.202 34.5725 38.0011 34.5725H33.3605C33.1596 34.5725 32.9688 34.5826 32.798 34.6027V33.5078C32.798 31.8404 31.9743 30.9967 30.317 30.9967H28.8504C27.183 30.9967 26.3594 31.8404 26.3594 33.5078V47.9922C26.3594 49.6496 27.183 50.4933 28.8504 50.4933H43.7366C45.394 50.4933 46.2176 49.6496 46.2176 47.9922V43.6328L46.74 48.3136ZM41.3359 30.0826H43.4453C44.0179 30.0826 44.2991 30.3839 44.2991 30.9263V47.721C44.2991 48.2734 44.0179 48.5748 43.4453 48.5748H40.4821V30.9263C40.4821 30.3839 40.7634 30.0826 41.3359 30.0826ZM48.6183 47.8415L47.0513 33.7288C46.9911 33.1864 47.2422 32.885 47.8047 32.8047L49.1607 32.644C49.7232 32.5636 50.0446 32.8449 50.1049 33.3772L51.6719 47.49C51.7321 48.0424 51.481 48.3438 50.9185 48.4241L49.5525 48.5848C48.99 48.6652 48.6786 48.394 48.6183 47.8415ZM29.1317 48.5748C28.5692 48.5748 28.2779 48.2734 28.2779 47.721V33.7589C28.2779 33.2165 28.5692 32.9252 29.1317 32.9252H30.0156C30.5982 32.9252 30.8694 33.2165 30.8694 33.7589V48.5748H29.1317ZM33.6518 36.4911H37.6998C38.2824 36.4911 38.5536 36.7824 38.5536 37.3248V48.5748H32.798V37.3248C32.798 36.7824 33.0792 36.4911 33.6518 36.4911ZM34.2746 39.0223H37.1172C37.4788 39.0223 37.76 38.731 37.76 38.3694C37.76 38.0078 37.4788 37.7266 37.1172 37.7266H34.2746C33.8929 37.7266 33.6217 38.0078 33.6217 38.3694C33.6217 38.731 33.9029 39.0223 34.2746 39.0223ZM34.2746 47.3493H37.1172C37.4788 47.3493 37.76 47.058 37.76 46.6864C37.76 46.3348 37.4788 46.0435 37.1172 46.0435H34.2746C33.9029 46.0435 33.6217 46.3348 33.6217 46.6864C33.6217 47.058 33.8929 47.3493 34.2746 47.3493Z" fill="white"/>
</svg>
