<svg width="80" height="80" viewBox="0 0 80 80" fill="none" xmlns="http://www.w3.org/2000/svg">
<rect width="80" height="80" rx="4" fill="#24B34C"/>
<path d="M29.2009 48.8965C30.7076 48.8965 31.7221 48.3239 32.6261 47.2893L34.4141 45.2101C34.6652 44.9088 34.9263 44.7782 35.2377 44.7782H44.75C45.0614 44.7782 45.3225 44.9088 45.5737 45.2101L47.3616 47.2893C48.2656 48.3239 49.2902 48.8965 50.7868 48.8965C53.1071 48.8965 54.7143 47.3597 54.7143 44.9088C54.7143 43.8541 54.4833 42.6588 54.0915 41.3329C53.4688 39.2536 52.394 36.4512 51.3694 34.2916C50.4955 32.4634 50.0234 31.5695 47.8136 31.0672C45.875 30.6253 43.2232 30.334 39.9989 30.334C36.7746 30.334 34.1127 30.6253 32.1741 31.0672C29.9743 31.5695 29.4922 32.4634 28.6183 34.2916C27.5938 36.4512 26.519 39.2536 25.8962 41.3329C25.5045 42.6588 25.2734 43.8541 25.2734 44.9088C25.2734 47.3597 26.8806 48.8965 29.2009 48.8965ZM31.7924 37.6565C31.7924 37.1141 32.144 36.7626 32.7065 36.7626H34.394V35.1353C34.394 34.5728 34.7355 34.2112 35.2879 34.2112C35.8304 34.2112 36.1719 34.5728 36.1719 35.1353V36.7626H37.7589C38.3717 36.7626 38.7433 37.1141 38.7433 37.6565C38.7433 38.219 38.3717 38.5706 37.7589 38.5706H36.1719V40.2079C36.1719 40.7704 35.8304 41.132 35.2879 41.132C34.7355 41.132 34.394 40.7704 34.394 40.2079V38.5706H32.7065C32.144 38.5706 31.7924 38.219 31.7924 37.6565ZM44.6998 36.0795C44.6998 35.2358 45.3527 34.5829 46.1864 34.5829C47.0301 34.5829 47.673 35.2358 47.673 36.0795C47.673 36.9233 47.0301 37.5661 46.1864 37.5661C45.3527 37.5661 44.6998 36.9233 44.6998 36.0795ZM41.7165 39.103C41.7165 38.2592 42.3694 37.6063 43.2031 37.6063C44.0368 37.6063 44.6897 38.2592 44.6897 39.103C44.6897 39.9367 44.0368 40.5795 43.2031 40.5795C42.3694 40.5795 41.7165 39.9367 41.7165 39.103Z" fill="white"/>
</svg>
