<svg width="56" height="56" viewBox="0 0 56 56" fill="none" xmlns="http://www.w3.org/2000/svg">
<rect width="56" height="56" rx="8" fill="#FFB800"/>
<path fill-rule="evenodd" clip-rule="evenodd" d="M30.4539 33.2111L30.4747 33.1905L30.4953 33.1697L30.5061 33.1588L35.696 27.9689C37.0994 26.5655 37.0994 24.2902 35.696 22.8868C34.2926 21.4834 32.0173 21.4834 30.6138 22.8868L28.0006 25.5L25.3202 22.8196C23.8797 21.3791 21.5443 21.3791 20.1038 22.8196C18.6633 24.2601 18.6633 26.5956 20.1038 28.036L25.2583 33.1905C25.3458 33.278 25.4362 33.3599 25.529 33.4362L25.6742 33.5556L25.7947 33.7C25.8851 33.8084 25.9814 33.914 26.0839 34.0164L27.8662 35.7988L30.4539 33.2111ZM27.8662 38.6272L24.6696 35.4306C24.5246 35.2856 24.3877 35.1356 24.2588 34.9811C24.116 34.8636 23.9775 34.7382 23.8441 34.6047L18.6896 29.4502C16.4681 27.2287 16.4681 23.6269 18.6896 21.4054C20.9111 19.1839 24.5129 19.1839 26.7344 21.4054L28.0006 22.6716L29.1996 21.4726C29.1993 21.4729 29.1999 21.4723 29.1996 21.4726C31.3842 19.289 34.9261 19.2884 37.1102 21.4726C39.2947 23.657 39.2947 27.1987 37.1102 29.3832L31.9203 34.5731L31.8889 34.6047L31.8572 34.6362L27.8662 38.6272Z" fill="white"/>
</svg>
