<svg width="56" height="56" viewBox="0 0 56 56" fill="none" xmlns="http://www.w3.org/2000/svg">
<rect width="56" height="56" rx="8" fill="#24B34C"/>
<path fill-rule="evenodd" clip-rule="evenodd" d="M29.2603 17.9736C29.1559 17.9605 29.0512 17.949 28.9462 17.9391C28.8959 17.9343 28.8464 17.9261 28.7981 17.9147C28.347 17.808 28 17.4198 28 16.9471C28 16.4238 28.4249 15.9957 28.9466 16.0369C29.0057 16.0416 29.0647 16.0467 29.1237 16.0523C29.2683 16.0659 29.4125 16.0821 29.5562 16.1009C31.6393 16.3733 33.6241 17.1894 35.3052 18.4793C37.4009 20.0874 38.9074 22.3421 39.5911 24.8937C40.2748 27.4453 40.0975 30.1512 39.0866 32.5917C38.0757 35.0323 36.2877 37.071 34 38.3919C31.7123 39.7127 29.0527 40.2417 26.4337 39.8969C23.8147 39.5521 21.3826 38.3527 19.5147 36.4848C17.6468 34.6169 16.4475 32.1849 16.1027 29.5659C15.8261 27.465 16.1118 25.3381 16.9173 23.3979C16.9729 23.2641 17.031 23.1311 17.0915 22.999C17.1162 22.9452 17.1413 22.8915 17.1668 22.838C17.3919 22.3656 17.9751 22.2117 18.4283 22.4733C18.8377 22.7097 19.0004 23.2042 18.8673 23.6483C18.853 23.6958 18.8354 23.7428 18.8143 23.7888C18.7704 23.8846 18.728 23.981 18.6871 24.078C17.9939 25.7243 17.7465 27.5326 17.9816 29.3185C18.272 31.5239 19.2819 33.5719 20.8548 35.1448C22.4277 36.7177 24.4757 37.7276 26.6811 38.018C28.8865 38.3083 31.126 37.8628 33.0524 36.7506C34.9789 35.6384 36.4844 33.9216 37.3357 31.8665C38.1869 29.8114 38.3363 27.5328 37.7606 25.3842C37.1848 23.2356 35.9162 21.337 34.1515 19.9828C32.7224 18.8863 31.0326 18.1964 29.2603 17.9736Z" fill="white"/>
<path fill-rule="evenodd" clip-rule="evenodd" d="M28.0013 24.667C27.5636 24.667 27.1301 24.7532 26.7257 24.9207C26.3213 25.0882 25.9538 25.3338 25.6443 25.6433C25.3348 25.9528 25.0892 26.3203 24.9217 26.7247C24.7542 27.1291 24.668 27.5626 24.668 28.0003C24.668 28.4381 24.7542 28.8715 24.9217 29.2759C25.0892 29.6804 25.3347 30.0478 25.6443 30.3573C25.9538 30.6669 26.3213 30.9124 26.7257 31.0799C27.1301 31.2474 27.5636 31.3337 28.0013 31.3337C28.439 31.3337 28.8725 31.2474 29.2769 31.0799C29.6813 30.9124 30.0488 30.6669 30.3583 30.3573C30.6679 30.0478 30.9134 29.6804 31.0809 29.2759C31.2484 28.8715 31.3346 28.4381 31.3346 28.0003C31.3346 27.5626 31.2484 27.1291 31.0809 26.7247C30.9134 26.3203 30.6679 25.9528 30.3583 25.6433C30.0488 25.3338 29.6813 25.0882 29.2769 24.9207C28.8725 24.7532 28.439 24.667 28.0013 24.667ZM25.9603 23.073C26.6074 22.8049 27.3009 22.667 28.0013 22.667C28.7017 22.667 29.3952 22.8049 30.0423 23.073C30.6894 23.341 31.2773 23.7338 31.7725 24.2291C32.2678 24.7243 32.6606 25.3123 32.9287 25.9593C33.1967 26.6064 33.3346 27.2999 33.3346 28.0003C33.3346 28.7007 33.1967 29.3942 32.9287 30.0413C32.6606 30.6884 32.2678 31.2763 31.7725 31.7716C31.2773 32.2668 30.6893 32.6597 30.0423 32.9277C29.3952 33.1957 28.7017 33.3337 28.0013 33.3337C27.3009 33.3337 26.6074 33.1957 25.9603 32.9277C25.3133 32.6597 24.7253 32.2668 24.2301 31.7716C23.7348 31.2763 23.342 30.6884 23.0739 30.0413C22.8059 29.3942 22.668 28.7007 22.668 28.0003C22.668 27.2999 22.8059 26.6064 23.0739 25.9593C23.342 25.3123 23.7348 24.7243 24.2301 24.2291C24.7253 23.7338 25.3133 23.341 25.9603 23.073Z" fill="white"/>
</svg>
