<svg width="56" height="56" viewBox="0 0 56 56" fill="none" xmlns="http://www.w3.org/2000/svg">
<rect width="56" height="56" rx="8" fill="#08CCCC"/>
<path fill-rule="evenodd" clip-rule="evenodd" d="M41 28C41 35.1797 35.1797 41 28 41C20.8203 41 15 35.1797 15 28C15 20.8203 20.8203 15 28 15C35.1797 15 41 20.8203 41 28ZM28 39C34.0751 39 39 34.0751 39 28C39 21.9249 34.0751 17 28 17C21.9249 17 17 21.9249 17 28C17 34.0751 21.9249 39 28 39Z" fill="white"/>
<path fill-rule="evenodd" clip-rule="evenodd" d="M27 32.333C27 32.8853 27.4477 33.333 28 33.333C28.5523 33.333 29 32.8853 29 32.333L29 25.4139L31.2929 27.7068C31.6834 28.0973 32.3166 28.0973 32.7071 27.7068C33.0976 27.3163 33.0976 26.6831 32.7071 26.2926L28.7071 22.2926C28.3166 21.902 27.6834 21.902 27.2929 22.2926L23.2929 26.2926C22.9024 26.6831 22.9024 27.3163 23.2929 27.7068C23.6834 28.0973 24.3166 28.0973 24.7071 27.7068L27 25.4139L27 32.333Z" fill="white"/>
</svg>
