<svg width="56" height="56" viewBox="0 0 56 56" fill="none" xmlns="http://www.w3.org/2000/svg">
<path fill-rule="evenodd" clip-rule="evenodd" d="M32 24H1.24613e-05V24H0C-8.2297e-10 24.0094 4.15311e-06 24.0188 1.24613e-05 24.0282V56H32V24ZM32 56L32 24L1.24613e-05 24V24.0282C0.00371241 28.2209 0.831307 32.3721 2.43585 36.2459C4.04401 40.1283 6.40111 43.6559 9.37258 46.6274C12.3441 49.5989 15.8717 51.956 19.7541 53.5641C23.6366 55.1723 27.7977 56 32 56Z" fill="white"/>
<rect x="8" width="48" height="48" rx="24" fill="#2162FF"/>
<path fill-rule="evenodd" clip-rule="evenodd" d="M33.4697 28.5303C33.1768 28.2374 33.1768 27.7626 33.4697 27.4697L36.9393 24L33.4697 20.5303C33.1768 20.2374 33.1768 19.7626 33.4697 19.4697C33.7626 19.1768 34.2374 19.1768 34.5303 19.4697L38.5303 23.4697C38.8232 23.7626 38.8232 24.2374 38.5303 24.5303L34.5303 28.5303C34.2374 28.8232 33.7626 28.8232 33.4697 28.5303Z" fill="white"/>
<path fill-rule="evenodd" clip-rule="evenodd" d="M38.75 24C38.75 24.4142 38.4142 24.75 38 24.75L26 24.75C25.5858 24.75 25.25 24.4142 25.25 24C25.25 23.5858 25.5858 23.25 26 23.25L38 23.25C38.4142 23.25 38.75 23.5858 38.75 24Z" fill="white"/>
</svg>
