<svg width="219" height="116" viewBox="0 0 219 116" fill="none" xmlns="http://www.w3.org/2000/svg">
<path fill-rule="evenodd" clip-rule="evenodd" d="M1.08876e-05 56.033C3.62837e-06 56.022 -9.61145e-10 56.011 0 56H1.08876e-05V56.033ZM50 106C43.4339 106 36.9321 104.707 30.8658 102.194C24.7996 99.6812 19.2876 95.9983 14.6447 91.3553C10.0017 86.7124 6.31876 81.2004 3.80602 75.1342C1.2975 69.0781 0.00433645 62.5879 1.08876e-05 56.033V106L50 106Z" fill="white"/>
<rect x="17" y="26" width="174" height="64" rx="32" fill="#2162FF"/>
<path d="M70.296 66.168C69.176 66.168 68.168 65.976 67.272 65.592C66.376 65.192 65.672 64.632 65.16 63.912C64.648 63.192 64.392 62.352 64.392 61.392H67.32C67.384 62.112 67.664 62.704 68.16 63.168C68.672 63.632 69.384 63.864 70.296 63.864C71.24 63.864 71.976 63.64 72.504 63.192C73.032 62.728 73.296 62.136 73.296 61.416C73.296 60.856 73.128 60.4 72.792 60.048C72.472 59.696 72.064 59.424 71.568 59.232C71.088 59.04 70.416 58.832 69.552 58.608C68.464 58.32 67.576 58.032 66.888 57.744C66.216 57.44 65.64 56.976 65.16 56.352C64.68 55.728 64.44 54.896 64.44 53.856C64.44 52.896 64.68 52.056 65.16 51.336C65.64 50.616 66.312 50.064 67.176 49.68C68.04 49.296 69.04 49.104 70.176 49.104C71.792 49.104 73.112 49.512 74.136 50.328C75.176 51.128 75.752 52.232 75.864 53.64H72.84C72.792 53.032 72.504 52.512 71.976 52.08C71.448 51.648 70.752 51.432 69.888 51.432C69.104 51.432 68.464 51.632 67.968 52.032C67.472 52.432 67.224 53.008 67.224 53.76C67.224 54.272 67.376 54.696 67.68 55.032C68 55.352 68.4 55.608 68.88 55.8C69.36 55.992 70.016 56.2 70.848 56.424C71.952 56.728 72.848 57.032 73.536 57.336C74.24 57.64 74.832 58.112 75.312 58.752C75.808 59.376 76.056 60.216 76.056 61.272C76.056 62.12 75.824 62.92 75.36 63.672C74.912 64.424 74.248 65.032 73.368 65.496C72.504 65.944 71.48 66.168 70.296 66.168ZM82.4764 55.008V62.328C82.4764 62.824 82.5884 63.184 82.8124 63.408C83.0524 63.616 83.4524 63.72 84.0124 63.72H85.6924V66H83.5324C82.3004 66 81.3564 65.712 80.7004 65.136C80.0444 64.56 79.7164 63.624 79.7164 62.328V55.008H78.1564V52.776H79.7164V49.488H82.4764V52.776H85.6924V55.008H82.4764ZM87.3021 59.328C87.3021 58 87.5741 56.824 88.1181 55.8C88.6781 54.776 89.4301 53.984 90.3741 53.424C91.3341 52.848 92.3901 52.56 93.5421 52.56C94.5821 52.56 95.4861 52.768 96.2541 53.184C97.0381 53.584 97.6621 54.088 98.1261 54.696V52.776H100.886V66H98.1261V64.032C97.6621 64.656 97.0301 65.176 96.2301 65.592C95.4301 66.008 94.5181 66.216 93.4941 66.216C92.3581 66.216 91.3181 65.928 90.3741 65.352C89.4301 64.76 88.6781 63.944 88.1181 62.904C87.5741 61.848 87.3021 60.656 87.3021 59.328ZM98.1261 59.376C98.1261 58.464 97.9341 57.672 97.5501 57C97.1821 56.328 96.6941 55.816 96.0861 55.464C95.4781 55.112 94.8221 54.936 94.1181 54.936C93.4141 54.936 92.7581 55.112 92.1501 55.464C91.5421 55.8 91.0461 56.304 90.6621 56.976C90.2941 57.632 90.1101 58.416 90.1101 59.328C90.1101 60.24 90.2941 61.04 90.6621 61.728C91.0461 62.416 91.5421 62.944 92.1501 63.312C92.7741 63.664 93.4301 63.84 94.1181 63.84C94.8221 63.84 95.4781 63.664 96.0861 63.312C96.6941 62.96 97.1821 62.448 97.5501 61.776C97.9341 61.088 98.1261 60.288 98.1261 59.376ZM107.216 54.696C107.616 54.024 108.144 53.504 108.8 53.136C109.472 52.752 110.264 52.56 111.176 52.56V55.392H110.48C109.408 55.392 108.592 55.664 108.032 56.208C107.488 56.752 107.216 57.696 107.216 59.04V66H104.48V52.776H107.216V54.696ZM116.883 55.008V62.328C116.883 62.824 116.995 63.184 117.219 63.408C117.459 63.616 117.859 63.72 118.419 63.72H120.099V66H117.939C116.707 66 115.763 65.712 115.107 65.136C114.451 64.56 114.123 63.624 114.123 62.328V55.008H112.563V52.776H114.123V49.488H116.883V52.776H120.099V55.008H116.883Z" fill="white"/>
<path fill-rule="evenodd" clip-rule="evenodd" d="M150.47 62.5303C150.177 62.2374 150.177 61.7626 150.47 61.4697L153.939 58L150.47 54.5303C150.177 54.2374 150.177 53.7626 150.47 53.4697C150.763 53.1768 151.237 53.1768 151.53 53.4697L155.53 57.4697C155.823 57.7626 155.823 58.2374 155.53 58.5303L151.53 62.5303C151.237 62.8232 150.763 62.8232 150.47 62.5303Z" fill="white"/>
<path fill-rule="evenodd" clip-rule="evenodd" d="M155.75 58C155.75 58.4142 155.414 58.75 155 58.75L143 58.75C142.586 58.75 142.25 58.4142 142.25 58C142.25 57.5858 142.586 57.25 143 57.25L155 57.25C155.414 57.25 155.75 57.5858 155.75 58Z" fill="white"/>
<path d="M189.957 104.182C190.098 103.616 190.902 103.616 191.043 104.182L191.792 107.188C191.917 107.69 192.31 108.083 192.812 108.208L195.818 108.957C196.384 109.098 196.384 109.902 195.818 110.043L192.812 110.792C192.31 110.917 191.917 111.31 191.792 111.812L191.043 114.818C190.902 115.384 190.098 115.384 189.957 114.818L189.208 111.812C189.083 111.31 188.69 110.917 188.188 110.792L185.182 110.043C184.616 109.902 184.616 109.098 185.182 108.957L188.188 108.208C188.69 108.083 189.083 107.69 189.208 107.188L189.957 104.182Z" fill="#2162FF"/>
<path d="M15.4566 1.18171C15.5976 0.615502 16.4024 0.615505 16.5434 1.18171L18.5882 9.39163C18.7134 9.89419 19.1058 10.2866 19.6084 10.4118L27.8183 12.4566C28.3845 12.5976 28.3845 13.4024 27.8183 13.5434L19.6084 15.5882C19.1058 15.7134 18.7134 16.1058 18.5882 16.6084L16.5434 24.8183C16.4024 25.3845 15.5976 25.3845 15.4566 24.8183L13.4118 16.6084C13.2866 16.1058 12.8942 15.7134 12.3916 15.5882L4.18171 13.5434C3.6155 13.4024 3.6155 12.5976 4.18171 12.4566L12.3916 10.4118C12.8942 10.2866 13.2866 9.89419 13.4118 9.39163L15.4566 1.18171Z" fill="#2162FF"/>
<path d="M212.457 10.1817C212.598 9.6155 213.402 9.6155 213.543 10.1817L214.192 12.7875C214.318 13.29 214.71 13.6824 215.213 13.8076L217.818 14.4566C218.384 14.5976 218.384 15.4024 217.818 15.5434L215.213 16.1924C214.71 16.3176 214.318 16.71 214.192 17.2125L213.543 19.8183C213.402 20.3845 212.598 20.3845 212.457 19.8183L211.808 17.2125C211.682 16.71 211.29 16.3176 210.787 16.1924L208.182 15.5434C207.616 15.4024 207.616 14.5976 208.182 14.4566L210.787 13.8076C211.29 13.6824 211.682 13.29 211.808 12.7875L212.457 10.1817Z" fill="#2162FF"/>
</svg>
