<svg width="48" height="48" viewBox="0 0 48 48" fill="none" xmlns="http://www.w3.org/2000/svg">
<rect width="48" height="48" rx="24" fill="#24B34C"/>
<path fill-rule="evenodd" clip-rule="evenodd" d="M22.507 14.1019C23.1183 12.8632 24.8848 12.8632 25.4961 14.1019L27.8005 18.7711L32.9532 19.5198C34.3202 19.7184 34.8661 21.3984 33.8769 22.3626L30.1483 25.997L31.0285 31.1289C31.262 32.4904 29.833 33.5287 28.6103 32.8859L24.0015 30.4629L19.3928 32.8859C18.1701 33.5287 16.7411 32.4904 16.9746 31.1289L17.8548 25.997L14.1262 22.3626C13.137 21.3984 13.6829 19.7184 15.0499 19.5198L20.2026 18.7711L22.507 14.1019ZM24.0015 15.5927L21.9185 19.8133C21.6758 20.3052 21.2065 20.6462 20.6636 20.7251L16.0059 21.4019L19.3763 24.6872C19.7691 25.0701 19.9483 25.6217 19.8556 26.1624L19.06 30.8013L23.226 28.6111C23.7115 28.3559 24.2916 28.3559 24.7771 28.6111L28.9431 30.8013L28.1475 26.1624C28.0548 25.6217 28.234 25.0701 28.6268 24.6872L31.9972 21.4019L27.3394 20.7251C26.7966 20.6462 26.3273 20.3052 26.0845 19.8133L24.0015 15.5927Z" fill="white"/>
</svg>
