<svg width="32" height="32" viewBox="0 0 32 32" fill="none" xmlns="http://www.w3.org/2000/svg">
<path fill-rule="evenodd" clip-rule="evenodd" d="M6 13.3099L6 20.0229C6 20.2559 6.12157 20.4719 6.32068 20.5928L12.6667 24.4457L12.6667 8.88715L6.32068 12.7401C6.12157 12.861 6 13.077 6 13.3099ZM4 20.0229C4 20.9547 4.4863 21.8188 5.28273 22.3024L12.6414 26.7701C13.5299 27.3096 14.6667 26.6699 14.6667 25.6304L14.6667 7.70247C14.6667 6.66296 13.5299 6.02327 12.6414 6.56276L5.28272 11.0305C4.4863 11.514 4 12.3782 4 13.3099L4 20.0229Z" fill="#141416"/>
<path fill-rule="evenodd" clip-rule="evenodd" d="M18.7774 21.4989C18.3179 21.1926 18.1937 20.5717 18.5001 20.1122C18.9257 19.4737 19.6655 18.3526 19.6655 16.6669C19.6655 14.9811 18.9257 13.86 18.5001 13.2216C18.1937 12.7621 18.3179 12.1412 18.7774 11.8348C19.237 11.5285 19.8578 11.6527 20.1642 12.1122L20.171 12.1224C20.6375 12.8222 21.6655 14.3639 21.6655 16.6669C21.6655 18.9698 20.6375 20.5116 20.171 21.2114L20.1642 21.2216C19.8578 21.6811 19.237 21.8053 18.7774 21.4989Z" fill="#141416"/>
<path fill-rule="evenodd" clip-rule="evenodd" d="M22.7774 25.4989C22.3179 25.1926 22.1937 24.5717 22.5001 24.1122C23.3702 22.8071 24.9988 20.3526 24.9988 16.6669C24.9988 12.9811 23.3702 10.5267 22.5001 9.22159C22.1937 8.76206 22.3179 8.14119 22.7774 7.83484C23.237 7.52848 23.8578 7.65266 24.1642 8.11219L24.1714 8.12299C25.082 9.48892 26.9988 12.364 26.9988 16.6669C26.9988 20.9698 25.082 23.8449 24.1714 25.2108L24.1642 25.2216C23.8578 25.6811 23.237 25.8053 22.7774 25.4989Z" fill="#141416"/>
</svg>
