<svg width="16" height="16" viewBox="0 0 16 16" fill="none" xmlns="http://www.w3.org/2000/svg">
<path d="M5.4721 11.8408C6.351 11.8408 6.9587 12.1572 7.22991 12.3431C7.32533 12.3933 7.57645 12.549 7.64174 12.564V4.21694C7.26507 3.56403 6.23549 3.05176 5.18583 3.05176C3.79464 3.05176 2.6596 3.83524 2.36328 4.42787V12.0166C2.3683 12.4636 2.61942 12.6444 2.9308 12.6444C3.16183 12.6444 3.30748 12.564 3.46317 12.4435C3.7846 12.1823 4.52288 11.8408 5.4721 11.8408ZM10.5246 11.8408C11.4738 11.8408 12.207 12.1823 12.5285 12.4435C12.6842 12.564 12.8298 12.6444 13.0558 12.6444C13.3672 12.6444 13.6283 12.4636 13.6283 12.0166V4.42787C13.332 3.83524 12.197 3.05176 10.8108 3.05176C9.76116 3.05176 8.72656 3.56403 8.35491 4.21694V12.5741C8.41518 12.559 8.66629 12.3983 8.76674 12.3431C9.03795 12.1572 9.64565 11.8408 10.5246 11.8408Z" fill="#2162FF"/>
</svg>
