<svg width="24" height="24" viewBox="0 0 24 24" fill="none" xmlns="http://www.w3.org/2000/svg">
<path d="M5.03237 16.1032H6.01925C6.24526 16.1032 6.33566 16.058 6.5014 15.9299L7.00614 15.5457C7.28488 15.8244 7.69922 15.8847 8.11356 15.7039L10.6071 14.6643C10.7955 14.5889 10.8934 14.5136 11.014 14.3931L18.2913 7.16846C19.0145 6.44524 19.0145 5.57889 18.2838 4.84061L16.649 3.19831C15.9182 2.46756 15.0519 2.46003 14.3287 3.18324L7.05134 10.4003C6.92327 10.5284 6.85547 10.6188 6.7726 10.8147L5.71791 13.3007C5.54464 13.7 5.58984 14.0917 5.86858 14.4006L4.78376 15.5231C4.55022 15.7717 4.66323 16.1032 5.03237 16.1032ZM15.1649 4.17766C15.3608 3.98933 15.5943 3.98179 15.7751 4.17013L17.3119 5.71449C17.5003 5.90283 17.4927 6.12883 17.2893 6.32471L16.7997 6.81438L14.6677 4.67487L15.1649 4.17766ZM8.38477 10.9201L13.8541 5.48849L15.9785 7.628L10.5167 13.0596L8.38477 10.9201ZM7.96289 14.3705C7.81975 14.4232 7.72182 14.4232 7.59375 14.2951L7.11914 13.8281C6.99861 13.7075 6.99861 13.5945 7.05134 13.4664L7.72935 11.8919L9.53739 13.715L7.96289 14.3705ZM4.77623 18.7775H19.233C19.5946 18.7775 19.8884 18.4687 19.8884 18.1071C19.8884 17.7455 19.5946 17.4441 19.233 17.4441H4.77623C4.40709 17.4441 4.11328 17.7455 4.11328 18.1071C4.11328 18.4687 4.41462 18.7775 4.77623 18.7775Z" fill="white"/>
</svg>
